<svg xmlns="http://www.w3.org/2000/svg" viewBox="0 0 1020.91 94.8"><defs><style>.cls-1{fill:#73d3d2;}.cls-2{fill:none;stroke:#ff8900;stroke-miterlimit:10;stroke-width:2px;}</style></defs><title>Asset 5</title><g id="Layer_2" data-name="Layer 2"><g id="Artboard_1" data-name="Artboard 1"><path class="cls-1" d="M54.7,68.6a64.09,64.09,0,0,0-9.9.5V51.4a85.17,85.17,0,0,0,13.1.6h8c5.1,0,8.8-.1,13.2-.5a94.9,94.9,0,0,0-.7,13.6V76.3a102,102,0,0,0,.7,14.9c-5.5,3.5-8.2,4.8-12.7,6.3a66.8,66.8,0,0,1-21.2,3.4c-12.7,0-22.6-3.5-29.7-10.7C7.9,82.6,3.7,70.7,3.7,57c0-26.3,15.9-43,41.1-43,12.5,0,22,3.89,28.6,11.9a29.06,29.06,0,0,1,5.9,10.9L58.9,41.5c-1.1-3.6-2.3-5.5-4.5-7.2-2.6-2.1-5.9-3.1-10.1-3.1-12.8,0-19.8,9.3-19.8,26.1,0,9.3,2.1,16.5,6.1,20.9,3.2,3.5,8.1,5.4,14.4,5.4A30,30,0,0,0,59.5,80V68.6Z" transform="translate(-3.7 -6.1)"/><path class="cls-1" d="M153,99.7a128.45,128.45,0,0,0-16.5-.7H105c-7.6,0-10.4.1-14.7.3a92.17,92.17,0,0,0,.8-14.6V30.1a106,106,0,0,0-.8-14.6c4.1.2,6.9.29,14.7.29h31.9a123.07,123.07,0,0,0,14.9-.69V33.8a122.79,122.79,0,0,0-14.9-.7h-26V47.8h21.6a119.84,119.84,0,0,0,15-.7V65.6a123.5,123.5,0,0,0-15-.7H110.9V81.7h25.8A135.38,135.38,0,0,0,153,81Z" transform="translate(-3.7 -6.1)"/><path class="cls-1" d="M205.9,83.9a113.78,113.78,0,0,0,.8,15.1H184.6a110.92,110.92,0,0,0,.8-15.1V33.5H173.6a135.33,135.33,0,0,0-15.1.7V15.1a137.53,137.53,0,0,0,14.9.69h43.8a132.59,132.59,0,0,0,15.6-.69V34.2a129,129,0,0,0-15.6-.7H205.9Z" transform="translate(-3.7 -6.1)"/><path class="cls-1" d="M295.8,15.79A92.66,92.66,0,0,0,295,30.6V84.2a96.67,96.67,0,0,0,.8,14.8h-22a95.84,95.84,0,0,0,.8-14.8V30.6a93.62,93.62,0,0,0-.8-14.81Z" transform="translate(-3.7 -6.1)"/><path class="cls-1" d="M356,56.7a134.54,134.54,0,0,1,7.2,11.9c-.4-4.6-.6-9.2-.6-14.8V31a109,109,0,0,0-.8-15.21h21.3A108.91,108.91,0,0,0,382.3,31V84.1a122.48,122.48,0,0,0,.8,14.9H361.2a107.89,107.89,0,0,0-7.5-12.7L335.2,58.4A118.36,118.36,0,0,1,328,46.1a143.16,143.16,0,0,1,.7,14.9V83.4a109.51,109.51,0,0,0,.8,15.6H308.2a103.23,103.23,0,0,0,.8-15.7V30.7a111.86,111.86,0,0,0-.8-14.91h21.7c1,2.71,3.2,6.71,7.1,12.51Z" transform="translate(-3.7 -6.1)"/><path class="cls-1" d="M482.3,44.8c-1.9-9.1-7.2-13.6-15.8-13.6-12.2,0-19.3,9.6-19.3,26.1,0,16.3,7.4,26.2,19.8,26.2a15.76,15.76,0,0,0,13.1-6.3c1.7-2.4,2.4-4.4,3-8.6l20.8,3.1c-1.9,8.5-4.1,13.4-8.3,18.3-6.2,7.1-15.9,10.9-28,10.9s-22.5-3.8-29.6-11c-7.41-7.5-11.61-19.2-11.61-32.6,0-13.6,4.2-25.1,12.11-32.9,6.9-6.7,17-10.4,28.7-10.4,12.9,0,23,4.39,29.5,13.1a30.89,30.89,0,0,1,6.2,13.7Z" transform="translate(-3.7 -6.1)"/><path class="cls-1" d="M591.6,57c0,26.4-16.1,43.9-40.4,43.9-24.51,0-40.31-17.1-40.31-43.6S526.69,14,551.3,14,591.6,30.8,591.6,57Zm-20.8.2c0-16.2-7.4-26-19.5-26s-19.71,9.9-19.71,26c0,16.3,7.51,26.4,19.71,26.4S570.8,73.6,570.8,57.2Z" transform="translate(-3.7 -6.1)"/><path class="cls-1" d="M649.39,56.7a134.67,134.67,0,0,1,7.21,11.9c-.4-4.6-.6-9.2-.6-14.8V31a110.57,110.57,0,0,0-.8-15.21h21.3A108.91,108.91,0,0,0,675.7,31V84.1a122.48,122.48,0,0,0,.8,14.9H654.6a108.16,108.16,0,0,0-7.51-12.7l-18.5-27.9a118.36,118.36,0,0,1-7.2-12.3,143.16,143.16,0,0,1,.7,14.9V83.4a109.51,109.51,0,0,0,.8,15.6h-21.3a103.23,103.23,0,0,0,.8-15.7V30.7a111.86,111.86,0,0,0-.8-14.91h21.7c1,2.71,3.2,6.71,7.1,12.51Z" transform="translate(-3.7 -6.1)"/><path class="cls-1" d="M731.69,83.9a113.78,113.78,0,0,0,.8,15.1h-22.1a110.92,110.92,0,0,0,.8-15.1V33.5h-11.8a135.33,135.33,0,0,0-15.1.7V15.1a137.53,137.53,0,0,0,14.9.69H743a132.59,132.59,0,0,0,15.6-.69V34.2a129,129,0,0,0-15.6-.7H731.69Z" transform="translate(-3.7 -6.1)"/><path class="cls-1" d="M815,99a81.21,81.21,0,0,0-2.4-10.8l-2.7-8.5H781.39l-2.7,8.5a57.63,57.63,0,0,0-2.5,10.8h-23.4c1.5-3,2.4-5.4,4.8-12.2l21.6-60.2a60.86,60.86,0,0,0,3.2-10.81H808.5a79.83,79.83,0,0,0,3.4,10.81l21.7,60.2c1.9,5.3,3.5,9.4,4.8,12.2ZM795.49,32.9l-9.3,30H805Z" transform="translate(-3.7 -6.1)"/><path class="cls-1" d="M898.7,44.8c-1.91-9.1-7.2-13.6-15.81-13.6-12.2,0-19.3,9.6-19.3,26.1,0,16.3,7.4,26.2,19.8,26.2a15.79,15.79,0,0,0,13.11-6.3c1.7-2.4,2.4-4.4,3-8.6l20.8,3.1c-1.9,8.5-4.1,13.4-8.3,18.3-6.2,7.1-15.9,10.9-28,10.9s-22.5-3.8-29.6-11c-7.4-7.5-11.6-19.2-11.6-32.6,0-13.6,4.2-25.1,12.1-32.9,6.9-6.7,17-10.4,28.7-10.4,12.91,0,23,4.39,29.51,13.1a30.89,30.89,0,0,1,6.2,13.7Z" transform="translate(-3.7 -6.1)"/><path class="cls-1" d="M972.49,83.9a113.78,113.78,0,0,0,.8,15.1h-22.1a110.92,110.92,0,0,0,.8-15.1V33.5h-11.8a135.33,135.33,0,0,0-15.1.7V15.1a137.53,137.53,0,0,0,14.9.69h43.8a132.59,132.59,0,0,0,15.6-.69V34.2a129,129,0,0,0-15.6-.7h-11.3Z" transform="translate(-3.7 -6.1)"/><path class="cls-1" d="M1017.19,78.8V99H997V78.8Z" transform="translate(-3.7 -6.1)"/><path class="cls-2" d="M61.12,61.7a64.09,64.09,0,0,0-9.9.5V44.5a85.32,85.32,0,0,0,13.11.6h8c5.1,0,8.8-.1,13.2-.5a94.9,94.9,0,0,0-.7,13.6V69.4a102,102,0,0,0,.7,14.9c-5.5,3.5-8.2,4.8-12.7,6.3A66.86,66.86,0,0,1,51.62,94c-12.7,0-22.6-3.5-29.7-10.7-7.6-7.6-11.8-19.5-11.8-33.2,0-26.3,15.9-43,41.1-43,12.51,0,22,3.9,28.61,11.9a29.06,29.06,0,0,1,5.9,10.9l-20.4,4.7c-1.1-3.6-2.3-5.5-4.5-7.2-2.6-2.1-5.91-3.1-10.11-3.1-12.8,0-19.8,9.3-19.8,26.1,0,9.3,2.1,16.5,6.1,20.9,3.2,3.5,8.1,5.4,14.4,5.4a30,30,0,0,0,14.51-3.6V61.7Z" transform="translate(-3.7 -6.1)"/><path class="cls-2" d="M159.42,92.8a128.45,128.45,0,0,0-16.5-.7h-31.5c-7.6,0-10.4.1-14.7.3a92.17,92.17,0,0,0,.8-14.6V23.2a106,106,0,0,0-.8-14.6c4.1.2,6.9.3,14.7.3h31.9a122.79,122.79,0,0,0,14.9-.7V26.9a122.79,122.79,0,0,0-14.9-.7h-26V40.9h21.6a119.84,119.84,0,0,0,15-.7V58.7a123.5,123.5,0,0,0-15-.7h-21.6V74.8h25.8a135.38,135.38,0,0,0,16.3-.7Z" transform="translate(-3.7 -6.1)"/><path class="cls-2" d="M212.32,77a113.78,113.78,0,0,0,.8,15.1H191a110.92,110.92,0,0,0,.8-15.1V26.6H180a135.33,135.33,0,0,0-15.1.7V8.2a137.06,137.06,0,0,0,14.9.7h43.8a132.27,132.27,0,0,0,15.6-.7V27.3a129,129,0,0,0-15.6-.7h-11.3Z" transform="translate(-3.7 -6.1)"/><path class="cls-2" d="M302.22,8.9a92.59,92.59,0,0,0-.8,14.8V77.3a96.67,96.67,0,0,0,.8,14.8h-22a95.84,95.84,0,0,0,.8-14.8V23.7a93.4,93.4,0,0,0-.8-14.8Z" transform="translate(-3.7 -6.1)"/><path class="cls-2" d="M362.42,49.8a134.54,134.54,0,0,1,7.2,11.9c-.4-4.6-.6-9.2-.6-14.8V24.1a108.76,108.76,0,0,0-.8-15.2h21.3a108.76,108.76,0,0,0-.8,15.2V77.2a122.48,122.48,0,0,0,.8,14.9h-21.9a107.89,107.89,0,0,0-7.5-12.7l-18.5-27.9a118.36,118.36,0,0,1-7.2-12.3,143.16,143.16,0,0,1,.7,14.9V76.5a109.51,109.51,0,0,0,.8,15.6h-21.3a103.23,103.23,0,0,0,.8-15.7V23.8a111.6,111.6,0,0,0-.8-14.9h21.7c1,2.7,3.2,6.7,7.1,12.5Z" transform="translate(-3.7 -6.1)"/><path class="cls-2" d="M488.72,37.9c-1.9-9.1-7.2-13.6-15.8-13.6-12.2,0-19.3,9.6-19.3,26.1,0,16.3,7.4,26.2,19.8,26.2a15.76,15.76,0,0,0,13.1-6.3c1.7-2.4,2.4-4.4,3-8.6l20.8,3.1c-1.9,8.5-4.1,13.4-8.3,18.3-6.2,7.1-15.9,10.9-28,10.9s-22.5-3.8-29.6-11c-7.4-7.5-11.6-19.2-11.6-32.6,0-13.6,4.2-25.1,12.1-32.9,6.9-6.7,17-10.4,28.7-10.4,12.9,0,23,4.4,29.5,13.1a30.89,30.89,0,0,1,6.2,13.7Z" transform="translate(-3.7 -6.1)"/><path class="cls-2" d="M598,50.1c0,26.4-16.1,43.9-40.4,43.9-24.5,0-40.3-17.1-40.3-43.6s15.8-43.3,40.4-43.3S598,23.9,598,50.1Zm-20.8.2c0-16.2-7.4-26-19.5-26S538,34.2,538,50.3c0,16.3,7.5,26.4,19.7,26.4S577.22,66.7,577.22,50.3Z" transform="translate(-3.7 -6.1)"/><path class="cls-2" d="M655.82,49.8A134.54,134.54,0,0,1,663,61.7c-.4-4.6-.6-9.2-.6-14.8V24.1a108.76,108.76,0,0,0-.8-15.2h21.3a108.76,108.76,0,0,0-.8,15.2V77.2a122.48,122.48,0,0,0,.8,14.9H661a107.89,107.89,0,0,0-7.5-12.7L635,51.5a118.36,118.36,0,0,1-7.2-12.3,143.22,143.22,0,0,1,.69,14.9V76.5a107.81,107.81,0,0,0,.81,15.6H608a103.23,103.23,0,0,0,.8-15.7V23.8A111.6,111.6,0,0,0,608,8.9h21.7c1,2.7,3.21,6.7,7.11,12.5Z" transform="translate(-3.7 -6.1)"/><path class="cls-2" d="M738.12,77a113.78,113.78,0,0,0,.8,15.1H716.81a109.32,109.32,0,0,0,.8-15.1V26.6h-11.8a135.33,135.33,0,0,0-15.1.7V8.2a137.06,137.06,0,0,0,14.9.7h43.81A132.27,132.27,0,0,0,765,8.2V27.3a129,129,0,0,0-15.6-.7h-11.3Z" transform="translate(-3.7 -6.1)"/><path class="cls-2" d="M821.42,92.1A81.21,81.21,0,0,0,819,81.3l-2.7-8.5h-28.5l-2.7,8.5a57.63,57.63,0,0,0-2.5,10.8H759.21c1.5-3,2.4-5.4,4.8-12.2l21.61-60.2a61,61,0,0,0,3.2-10.8h26.1a79.8,79.8,0,0,0,3.4,10.8L840,79.9c1.9,5.3,3.5,9.4,4.8,12.2ZM801.92,26l-9.3,30h18.8Z" transform="translate(-3.7 -6.1)"/><path class="cls-2" d="M905.12,37.9c-1.9-9.1-7.2-13.6-15.8-13.6-12.2,0-19.3,9.6-19.3,26.1,0,16.3,7.4,26.2,19.8,26.2a15.76,15.76,0,0,0,13.1-6.3c1.7-2.4,2.4-4.4,3-8.6l20.8,3.1c-1.9,8.5-4.1,13.4-8.3,18.3-6.2,7.1-15.9,10.9-28,10.9s-22.5-3.8-29.61-11c-7.4-7.5-11.6-19.2-11.6-32.6,0-13.6,4.2-25.1,12.1-32.9,6.9-6.7,17-10.4,28.71-10.4,12.9,0,23,4.4,29.5,13.1a30.89,30.89,0,0,1,6.2,13.7Z" transform="translate(-3.7 -6.1)"/><path class="cls-2" d="M978.92,77a113.92,113.92,0,0,0,.79,15.1h-22.1a110.92,110.92,0,0,0,.8-15.1V26.6h-11.8a135.33,135.33,0,0,0-15.1.7V8.2a137.06,137.06,0,0,0,14.9.7h43.81a132.27,132.27,0,0,0,15.6-.7V27.3a129,129,0,0,0-15.6-.7h-11.3Z" transform="translate(-3.7 -6.1)"/><path class="cls-2" d="M1023.61,71.9V92.1h-20.2V71.9Z" transform="translate(-3.7 -6.1)"/></g></g></svg>