<?xml version="1.0" encoding="utf-8"?>
<!-- Generator: Adobe Illustrator 19.0.0, SVG Export Plug-In . SVG Version: 6.00 Build 0)  -->
<svg version="1.1" id="Layer_1" xmlns="http://www.w3.org/2000/svg" xmlns:xlink="http://www.w3.org/1999/xlink" x="0px" y="0px"
	 viewBox="0 0 894.3 836.8" style="enable-background:new 0 0 894.3 836.8;" xml:space="preserve">
<style type="text/css">
	.st0{clip-path:url(#SVGID_2_);}
	.st1{clip-path:url(#SVGID_4_);}
	.st2{display:none;clip-path:url(#SVGID_6_);fill:#FFFFFF;stroke:#BF0000;stroke-width:11;stroke-miterlimit:10;}
	.st3{clip-path:url(#SVGID_6_);}
	.st4{clip-path:url(#SVGID_6_);fill:#3C3C3C;}
	.st5{clip-path:url(#SVGID_6_);fill:#CCCCCC;}
	.st6{clip-path:url(#SVGID_6_);fill:#2C2C2C;}
	.st7{clip-path:url(#SVGID_6_);fill:#282828;}
	.st8{clip-path:url(#SVGID_6_);fill:#666666;}
	.st9{clip-path:url(#SVGID_6_);fill:#090909;}
	.st10{clip-path:url(#SVGID_6_);fill:#767676;}
	.st11{clip-path:url(#SVGID_6_);fill:#545454;}
	.st12{clip-path:url(#SVGID_6_);fill:#A2A2A2;}
	.st13{clip-path:url(#SVGID_6_);fill:#ACACAC;}
	.st14{clip-path:url(#SVGID_6_);fill:#FEFEFE;}
	.st15{clip-path:url(#SVGID_6_);fill:#FDFDFD;}
	.st16{clip-path:url(#SVGID_6_);fill:#0D0D0D;}
</style>
<g>
	<defs>
		<rect id="SVGID_1_" x="-248" y="-50.6" width="1411.1" height="1081.4"/>
	</defs>
	<clipPath id="SVGID_2_">
		<use xlink:href="#SVGID_1_"  style="overflow:visible;"/>
	</clipPath>
	<g class="st0">
		<defs>
			<rect id="SVGID_3_" x="90" y="-10.5" width="734.9" height="1001.3"/>
		</defs>
		<clipPath id="SVGID_4_">
			<use xlink:href="#SVGID_3_"  style="overflow:visible;"/>
		</clipPath>
		<g class="st1">
			<defs>
				<rect id="SVGID_5_" x="90" y="-10.5" width="734.9" height="1001.3"/>
			</defs>
			<clipPath id="SVGID_6_">
				<use xlink:href="#SVGID_5_"  style="overflow:visible;"/>
			</clipPath>
			<path class="st2" d="M824.9,490.1c0,165.3,0,330.7,0.1,496c0,3.8-0.6,4.6-3.4,4.6c-242.7-0.1-485.5-0.1-728.2,0
				c-2.8,0-3.4-0.8-3.4-4.6c0.1-330.7,0.1-661.4,0-992.1c0-3.8,0.6-4.6,3.4-4.6c242.7,0.1,485.5,0.1,728.2,0c2.8,0,3.4,0.8,3.4,4.6
				C824.9,159.4,824.9,324.7,824.9,490.1"/>
			<path class="st3" d="M335.7,592c-8.9-46.1-17.8-92.1-26.8-138.2c-1-5.1-2-10.3-2.8-15.5c-0.5-3.3-1.6-3.7-3.8-3.1
				c-31.2,8.8-62.4,17.6-93.6,26.4c-24.9,7-49.9,14.1-74.8,21c-12.8,3.5-16.8,0.4-22-16.2c-3-9.5-4.2-19.4-3.6-29.7
				c0.7-12,4.5-17,13.2-17.6c41.8-3.1,83.5-7.7,125.2-11.9c17.2-1.7,34.4-4.6,52-5.1c-3.8-19.9-7.6-39.3-11.3-58.7
				c-5.1-26.9-10.3-53.7-15.4-80.6c-1.4-7.6-2.4-15.3-2.7-23.1c-0.5-13.2,7-23.8,16.6-23.8c15,0,22.9,10,24.5,31.2
				c3.5,45.1,6.9,90.1,10.4,135.2c0.4,4.8,0.9,9.6,1.2,14.4c0.1,2.2,0.6,2.7,2.2,2.5c9.3-1.1,18.8-1.4,28-3.4
				c3.7-0.8,8.2-2.8,10.2-8.7c0.3-0.8,1.1-1.3,1.7-1.9c1.9-1.2,1.7-4.3,2.9-6l2.8-5.2c1.7-0.9,3.7,1.5,5.2-0.9
				c0.5-3.8,1.7-7.1-2.1-9.9c-2.3-1.7-1.4-6.8-0.8-10.3c0.5-3,0.7-5.9,0.3-8.9c-0.8-6.5,0.2-13,0.3-19.5c0.2-12.5-1.3-24.9-1.4-37.4
				c-0.1-5.9,2.2-10.2,3.4-15c1.4-5.4,3.1-10.9,4.5-16.3c2.7-10.2,6.4-19.4,10.9-28.2c4.8-9.3,8.4-19.4,11.6-30.1
				c3.9-13.1,5-26.9,8-40.1c2.2-9.9,2.4-20.8,6.5-30c0.7-1.5,0.7-3.8-0.6-4.9c-1.3-1-2.3,0.6-3.1,1.7c-11,15-18.2,33.6-26.3,51.4
				c-1.1,2.4,0.3,5-0.9,7.2c-1,3.2-0.3,6.5-0.4,9.7c-0.1,2.5-0.2,4.9-1.2,7.1c-2.5,0.9-1.6-1.3-1.5-2.9c0.6-2.2,1-4.5-0.7-6.1
				c-1-1-2.3-0.8-2.9,1.2l0,0c-1.1,3.3-1.8,6.6-0.7,10.3c0.3,1.1,0.6,2.7-1,2.8l0,0c-1.5-0.6-1.5-0.6-2.1,3.2
				c-0.5,0.8-0.1,2.7-1.3,2.5c-1.2-0.2-2-1.5-2-3.1c0.1-3.6-0.5-7.2,0.3-10.8c3.2-8.6,5.8-17.6,9.6-25.7
				c4.7-10.2,7.6-21.4,10.6-32.6c1.1-3.9,3.1-6.9,5.3-10c3.3-4.6,5.8-10.2,8.7-15.4c0.3-0.5,0.6-1.4,0.5-1.8c-2-4.5,0.8-6.7,2.4-9.3
				c5.5-8.7,12.3-15.5,18.8-22.7c1.6-1.8,3.8-1.9,6-1.6c5.5,0.7,10.3,4.2,14.8,8.2c1.7,1.5,3.4,2.7,5.5,2.4c2.6-0.3,2.8-1.9,2.1-5.2
				c-1-4.6-3.3-5-6.2-5.6c-6.5-1.3-13.6-12.6-13.8-21.4c-0.2-9.8,5.5-19.8,12.8-22.5c5.9-2.2,11.5-0.8,15.5,5.4
				c4,6.2,6.4,13.5,3.3,22c-0.2,0.4-0.3,1-0.3,1.4c0.1,1.8-1.8,3.6-0.4,5c1.2,1.4,2.6-0.6,4-0.9c4.1-1.1,7.9-4,12.1-4.3
				c3-0.2,6.9,3.6,7.3,8.7c0.4,4.4,2,8.4,1.8,13.1c-0.1,2.8-0.5,4.4-1.8,6.5c-4.2,6.6-9.5,10.1-15.9,10.3c-0.7,0-1.6,0.2-2.2-0.3
				c-2.2-1.9-4.4-1-5.4,1.6c-1,2.7-0.8,6.2,1,8.8c3.7,5.3,6.6,11.5,9.3,17.9c1.2,2.8,1.5,5.4,0.9,8.6c-1.8,8.6-0.3,17.2,0.8,25.7
				c0.7,5.5,7.6,10.1,11.6,9c2.6-0.8,5.3-1.3,8-1.7c2.2-0.3,4.5,0,5.2,3.7c0.6,3.1,1.4,6.2-1.3,8.9c-1.3,1.3-1.8,4.2-3.2,6
				c-2.3,3.1-5,4.2-7.2,1.3c-3.3-4.3-7.2-6.2-11.6-6.1c-5.1,0.1-8.5-4.4-12.4-7.8c-0.4-0.3-0.8-1-0.9-1.5c-0.6-5.6-2.8-4.3-5.2-2.2
				c-0.7,0.6-1.4,1.3-2.4,2.1c-0.3-3.4,0.1-6.3,1.5-8.7c1.7-3,0.9-5.9-0.5-8.2c-1.7-2.7-3.4,0.1-4.8,1.2c-3.1,2.4-5.1,6-5.4,11.1
				c-0.3,4.1-0.8,8.3-1.6,12.3c-1.5,7.5-0.2,15.1,1.6,21.4c1.6,5.6,3.2,11.8,6,17.1c3.6,6.8,4.9,15.2,5.2,23.5
				c0.3,7.7,1,15.2,2.9,22.5c1.7,6.7,1.6,13.7,2,20.5c0.4,8.9,1.7,17.8,1.8,26.6c0.3,20.5,1.5,40.9,1.5,61.4c0,8.3,0.2,8.3,6.1,8.5
				c0.8-0.3,1.7-0.9,1.7,1.1c-2.4,0.9-6,0.8-6.9,2.9c-1.2,2.9-0.4,7.4-0.4,11.2c0,9.8,0,19.5,0.5,29.5c3-2.6,5.2-5.5,7-9.1
				c17.5-34.3,35.1-68.5,52.5-102.9c1.8-3.6,3.7-4.2,6.4-3.4c8.8,2.7,13.2,10.6,14.3,24.4c2.1,26.4,2.1,52.9,2,79.4
				c0,1.8,0,3.6,0,6.1c2-1.6,2.4-4.1,3.2-6.2c11.8-32.6,22.3-66.1,33.6-99.1c4.2-12.3,8.3-24.8,13.1-36.8c1-2.4,2.1-4.3,4.1-5.3
				c11.2-5.7,22.6-9.5,34.6-10.4c0.6,0,1.2,0,1.8,0c7.5,0.3,8.2,1.7,5,10.8c-12,35.4-20.9,72.3-29.2,109.5
				c-5.3,23.4-10.2,46.8-13.6,70.8c-3.7,26.3-7,52.8-10.6,79.1c-3.4,25-7.2,49.9-10.6,74.9c-5.3,38.9-10.2,78-14.5,117.2
				c-1,8.9-2,17.8-3,26.7c-1.7-0.5-0.8-2-0.7-3.2c1.1-20.3,2.2-40.5,3.4-60.8c1.5-25.9,3.2-51.8,4.8-77.7
				c1.5-24.9,3.9-49.7,6.3-74.4c3.1-32.2,6.1-64.4,9.2-96.6c2-21.1,4-42.3,6-63.4c0.2-0.6,0.3-1.3,0.1-1.9c-0.2-0.5,0.3-1.2-0.3-1.4
				c-0.1,0-0.4,0.8-0.6,1.1c-6.7,21.7-13.4,43.5-22.1,64c-3,7.1-6.2,14-10.3,20c-1.4,2.1-2.9,4.1-4.6,5.8c-5,5.1-9.5,4.2-13.4-2.4
				c-3.2-5.4-4.8-11.9-6.2-18.5c-3.8-16.9-4.3-34.4-5.1-51.8c-0.7-16.6-2-33.2-1.4-51.3c-3.4,6.3-5.7,11.9-7.6,17.9
				c-10,32.7-20.9,64.8-33.8,95.5c-3.5,8.4-7.5,16.4-12.6,23.2c-7.8,10.3-15.2,4.7-18.6-5.2c-3.9-11.6-5.3-24.1-6.2-36.7
				c-0.9-13.3-1.8-26.6-2.6-39.8c-0.2-3.1-0.7-3.8-3.1-3c-7.6,2.5-15.2,4.6-22.9,6.6c-2.3,0.6-2.9,2.6-3.6,4.9
				c-7.9,24.4-15.8,48.6-25.7,71.7c-2.7,6.3-5.4,12.7-9.2,18c-4.4,6.2-8,5.3-10.6-2.7c-1.8-5.3-2.1-10.9-2.2-16.6
				c-0.2-18.3-1.9-36.6-1.7-55c0-3.8-0.6-5.1-3.7-4.2c-13.6,4.1-27.2,7.9-40.9,11.6c-2.5,0.7-3.2,1.8-2.9,5.5
				c2.3,28.7,4.3,57.3,6.4,86c1.6,21.7,3.2,43.4,4.8,65.2c0.2,2.5,0.1,5,0.2,7.5C335.9,592.5,335.7,592.4,335.7,592"/>
			<path class="st3" d="M716.9,422.4c0.2,49.6-3.7,98.7-11,147.3c-3.4,22.9-7.7,45.4-13,67.6c-9,37.5-20.6,73.2-38.3,104.9
				c-5.1,9.2-10.7,17.8-17.6,24.6c-10.5,10.4-20,7.5-26.3-7.8c-1.6-3.9-2.9-8.1-4-12.3c-4.7-18.7-6.8-38.2-8.1-57.7
				c-4.4-67.1,0.3-133.4,9.9-199.3c5.5-38.3,13.1-75.8,24.4-111.7c9.4-29.8,20.4-58.3,37.9-81.1c2.9-3.8,6-7.3,9.7-9.8
				c7.9-5.3,15.1-3.1,20.5,6.4c5.4,9.6,8,20.9,9.9,32.5c4,24.1,5.4,48.7,5.9,73.4C717,407.1,716.9,414.8,716.9,422.4"/>
			<path class="st4" d="M377.3,204.9c1.3-1.4,0.2-3,0.2-4.5c-0.1-3-0.4-6.2,1.5-8.6c-0.3,4.1-1.3,8.1,0.5,12.1
				c0.5,1.2,1.5,3,0.1,3.8C378,208.6,377.6,206.6,377.3,204.9"/>
			<path class="st5" d="M372.3,196.8c0.4,4.5-1.4,9.5,1.4,13.7c1.3-0.9,0.9-2.6,1.5-3.8c0.2-0.4,0.5-0.4,0.7,0
				c-0.5,2,0.1,5.5-2.1,5.2c-1.8-0.3-2.6-3.3-2.3-6C371.7,202.8,370.6,199.5,372.3,196.8"/>
			<path class="st6" d="M384,199.6c1.5-5.5-0.3-11.5,1.6-16.9c0,4.1,0.1,8.2,0,12.3C385.5,196.8,385.4,198.6,384,199.6"/>
			<path class="st7" d="M566.9,751.1c0.2,1.1,0.5,2.1,0.7,3.2c-0.2,2.7-0.5,5.3-0.7,8C566.2,758.4,565.9,754.7,566.9,751.1"/>
			<path class="st6" d="M378.9,191.9c0.4-3.3,2.2-2.6,3.2-1.5c1.7,1.7,1.8,4.1,0.3,6.4C382.6,190.8,382.3,190.4,378.9,191.9"/>
			<path class="st8" d="M375.2,372.9c-1.4,3.6-3.4,1.2-5.2,0.9C371.6,372.2,373.5,373.8,375.2,372.9"/>
			<path class="st9" d="M478.1,385c-0.6-0.4-1.1-0.7-1.7-1.1c1.7-0.9,3.4-0.8,5.5-0.8C480.8,385.2,479.4,385,478.1,385"/>
			<path class="st10" d="M566.8,763.7c-0.3,2.3-0.5,4.6-0.9,8.2C565.3,768.1,565.3,765.8,566.8,763.7"/>
			<path class="st11" d="M367.1,379c-0.6,2.3-0.3,5.5-2.9,6C365.5,383.3,365.4,380.3,367.1,379"/>
			<path class="st12" d="M595.7,376c-0.1-1.4,0.3-2.4,1.2-3.3c0.4,2,0.5,3.8-0.4,5.4C596.2,377.5,596.5,376.3,595.7,376"/>
			<path class="st4" d="M375.9,206.7c-0.2,0-0.5,0-0.7,0c-0.1-1.4,0-2.8,1.1-3.3c0.6-0.3,1.1,0.5,1.1,1.5
				C376.6,205.1,376,205.5,375.9,206.7"/>
			<path class="st13" d="M335.7,592c0.2-0.1,0.4,0,0.5,0.2c1.1,0.8,1,2,0.4,3.7C336.2,594.3,335.9,593.1,335.7,592"/>
			<path class="st14" d="M392.6,392c-3.8,0.3-4.5-0.2-5.4-7.8c-0.5-4.3-1.3-8.4-1.8-12.7c-1.3-11.2-0.5-22.4-0.2-33.7
				c0.2-9.8,3-19.1,1.9-29c-0.8-7.5,1.6-13.8,4.4-20.2c2.8-6.5,5.8-12.7,8.6-19.1c4.5-10.5,11.1-17.9,18.1-24.9c2-2,4.1-2.1,6.4-0.1
				c3.2,2.8,5.6,6.5,8,10.2c3.1,4.7,6.3,9.3,10.2,12.9c1.5,1.4,3,3.1,1.9,6.2c-5.8,17-8.6,35.3-13.1,52.8
				c-5.3,21.1-12.5,41.1-19.7,61.1c-0.8,2.3-2,2.6-3.5,2.7C403.4,391,398.5,391.5,392.6,392"/>
			<path class="st14" d="M427,388.5c8.6-27.9,16.6-55.1,24.3-82.6c1.3,1.1,0.7,2.5,0.7,3.7c-0.5,22.5-2.4,44.9-1.6,67.4
				c0.3,9.4,0.3,9.4-6.7,10C438.2,387.4,432.9,387.9,427,388.5"/>
			<path class="st15" d="M404.7,406.3c-4.9,13.1-9.5,25.4-14.2,37.8c-0.3,0.8-0.6,2-1.5,1.8c-1.1-0.3-1-1.8-1.1-2.8
				c-0.5-7.1-0.1-14.3,0.1-21.4c0.3-10.8,0.3-10.8,8.1-13C398.9,407.9,401.6,407.2,404.7,406.3"/>
			<path class="st16" d="M376.7,197.1c-0.2,0.5-0.4,1-0.6,1.1c-0.6,0.2-0.8-0.5-0.7-1.1c0-0.3,0.4-0.8,0.6-0.8
				C376.2,196.3,376.4,196.8,376.7,197.1"/>
			<path class="st14" d="M610.3,640.2c-0.2-16.6,0.8-33.1,2.7-49.5c3.1-27,8.2-53.4,14.2-79.4c8.5-36.5,19.1-71.6,36.1-102.5
				c2.5-4.5,5.1-9,8.6-12.2c6.1-5.8,11.7-3.8,14.2,4.9c3.5,12.1,5.7,24.5,6.5,37.4c0.2,3.6,0.6,7.3,0.7,10.9
				c0.9,28.7-2.2,56.9-6.7,84.8c-5.5,34.8-14,68.3-25.8,100.1c-7.2,19.4-15.4,37.9-27.8,52.2c-3.1,3.6-6.4,6.7-10.1,8.9
				c-5.5,3.2-8.5,1.5-9.7-6.4c-1.7-11.4-2.8-23-3-34.7C610.2,649.9,610.3,645.1,610.3,640.2"/>
		</g>
	</g>
</g>
</svg>
