<?xml version="1.0" encoding="utf-8"?>
<!-- Generator: Adobe Illustrator 19.0.0, SVG Export Plug-In . SVG Version: 6.00 Build 0)  -->
<svg version="1.1" id="Layer_1" xmlns="http://www.w3.org/2000/svg" xmlns:xlink="http://www.w3.org/1999/xlink" x="0px" y="0px"
	 viewBox="0 0 227 230.2" style="enable-background:new 0 0 227 230.2;" xml:space="preserve">
<style type="text/css">
	.st0{display:none;fill:#0071BC;}
	.st1{fill:#FFFFFF;}
</style>
<rect id="XMLID_1_" y="0" class="st0" width="227" height="230.2"/>
<g id="XMLID_2_">
	<path id="XMLID_7_" class="st1" d="M35.6,165.1v62h-8.9v-27.2H13.5v27.2H4.6v-62h8.9v27.5h13.2v-27.5H35.6z"/>
	<path id="XMLID_9_" class="st1" d="M66.2,212.7H53.1l-2.3,14.4h-8.9l11-62h13l11.8,62h-9L66.2,212.7z M65,205.5l-5.6-32.7
		l-5.1,32.7H65z"/>
	<path id="XMLID_16_" class="st1" d="M101.5,207.5v19.6h-9v-19.6l-13.3-42.4h9.1l8.6,34.2l8.1-34.2h9.1L101.5,207.5z"/>
	<path id="XMLID_18_" class="st1" d="M141.5,165.1c6.3,0,9.2,3.1,9.2,8.7v44.5c0,5.6-2.9,8.7-9.2,8.7h-21.6v-62H141.5z M141.7,175
		c0-2.4-0.6-2.9-3-2.9h-9.8v47.9h9.8c2.4,0,3-0.5,3-2.9V175z"/>
	<path id="XMLID_21_" class="st1" d="M187.4,219.9v7.2h-26.9v-62h26.2v7.2h-17.2v19.1h14.3v7.2h-14.3v21.2H187.4z"/>
	<path id="XMLID_23_" class="st1" d="M224.8,165.1v62h-9l-13.1-44.7v44.7h-8.2v-62h9.4l12.7,43.5v-43.5H224.8z"/>
</g>
<g id="Top">
	<g id="XMLID_29_">
		<path id="XMLID_5_" class="st1" d="M75.2,7.8v142.6H54.7V87.7H24.4v62.7H3.9V7.8h20.5v63.3h30.3V7.8H75.2z"/>
	</g>
	<g id="XMLID_4_">
		<path id="XMLID_11_" class="st1" d="M174.6,24.4h-12.3c-5.5,0-6.6,1.1-6.6,6.6v96.2c0,5.5,1.1,6.6,6.6,6.6h12.3
			c5.5,0,6.8-1.1,6.8-6.6V31C181.5,25.5,180.1,24.4,174.6,24.4z"/>
		<path id="XMLID_14_" class="st1" d="M75.1,1.8v6h37.1v142.6H91.5v-126H75.1v132.1h149.3V1.8H75.1z M202.2,130.3
			c0,13-6.6,20.1-21.2,20.1h-24.8c-14.8,0-21.4-7.1-21.4-20.1V27.8c0-13,6.6-20.1,21.4-20.1H181c14.6,0,21.2,7.1,21.2,20.1V130.3z"
			/>
	</g>
</g>
<g id="XMLID_3_">
</g>
<g id="XMLID_25_">
</g>
<g id="XMLID_26_">
</g>
<g id="XMLID_27_">
</g>
<g id="XMLID_28_">
</g>
</svg>
