<svg xmlns="http://www.w3.org/2000/svg" viewBox="0 0 661.92 94.9"><defs><style>.cls-1{fill:#73d3d2;}.cls-2{fill:none;stroke:#ff8900;stroke-miterlimit:10;stroke-width:2px;}</style></defs><title>Asset 6</title><g id="Layer_2" data-name="Layer 2"><g id="Artboard_1" data-name="Artboard 1"><path class="cls-1" d="M62.9,99a81.21,81.21,0,0,0-2.4-10.8l-2.7-8.5H29.3l-2.7,8.5A57.63,57.63,0,0,0,24.1,99H.7c1.5-3,2.4-5.4,4.8-12.2L27.1,26.6a61.34,61.34,0,0,0,3.2-10.81H56.4A80.27,80.27,0,0,0,59.8,26.6L81.5,86.8C83.41,92.1,85,96.2,86.31,99ZM43.4,32.9l-9.3,30H52.9Z" transform="translate(-0.7 -6.1)"/><path class="cls-1" d="M108,99c-7.6,0-10.5.1-14.8.3A95.22,95.22,0,0,0,94,84.6V29.9a110.82,110.82,0,0,0-.8-14.41c5.1.3,6.5.3,14.7.3h26.2c16.2,0,25.7,7.81,25.7,21,0,6.1-2,10.9-5.8,14.3-2.2,1.9-4,2.9-8.1,4.4,4.9,1.1,7.5,2.3,10.4,4.8,4.3,3.8,6.5,9.2,6.5,15.8,0,14.4-10.2,22.9-27.6,22.9Zm23.2-51.1c5.3,0,8.6-3.1,8.6-8s-3.1-7.7-8.8-7.7H113.6V47.9ZM113.6,82.5H132c6.3,0,10.1-3.5,10.1-9.4s-3.8-9.2-10.2-9.2H113.6Z" transform="translate(-0.7 -6.1)"/><path class="cls-1" d="M251.1,57c0,26.4-16.1,43.9-40.4,43.9-24.5,0-40.3-17.1-40.3-43.6S186.2,14,210.8,14,251.1,30.8,251.1,57Zm-20.8.2c0-16.2-7.4-26-19.5-26s-19.7,9.9-19.7,26c0,16.3,7.5,26.4,19.7,26.4S230.3,73.6,230.3,57.2Z" transform="translate(-0.7 -6.1)"/><path class="cls-1" d="M337.6,15.79a99.44,99.44,0,0,0-.8,15.11V65.3c0,22.8-13.7,35.7-37.8,35.7-12.4,0-22.5-3.5-28.5-9.8-5.8-6.2-8.8-14.9-8.8-26.1V30.9a97.86,97.86,0,0,0-.8-15.11h21.6c-.6,3.7-.8,7.71-.8,15.11V65.3c0,12.6,5.7,18.6,17.4,18.6,12,0,17.7-6,17.7-18.6V30.9a98.69,98.69,0,0,0-.8-15.11Z" transform="translate(-0.7 -6.1)"/><path class="cls-1" d="M392.5,83.9a113.78,113.78,0,0,0,.8,15.1H371.2a110.92,110.92,0,0,0,.8-15.1V33.5H360.2a135.33,135.33,0,0,0-15.1.7V15.09a137.06,137.06,0,0,0,14.9.7h43.8a132.27,132.27,0,0,0,15.6-.7V34.2a129,129,0,0,0-15.6-.7H392.5Z" transform="translate(-0.7 -6.1)"/><path class="cls-1" d="M496.8,99c-.5-3.5-1.6-7.2-4.3-14.8l-9.2-26.6c-.1-.5-3.1-9.8-3.4-10.6-1.1-3.6-1.1-3.6-1.6-5,.6,6.3,1,14.5,1,19.8V83.5a107.09,107.09,0,0,0,.8,15.5H460.4a110.67,110.67,0,0,0,.8-15.5V31.4a138.1,138.1,0,0,0-.8-15.61h26.4a74.17,74.17,0,0,0,3.8,14.11l15,43.1,14.9-43.1c2.3-6.71,3.1-9.91,3.7-14.11h26.5a116.13,116.13,0,0,0-.8,15.61V83.5a99.44,99.44,0,0,0,.8,15.5H531a108.86,108.86,0,0,0,.8-15.5V61.7c0-2.4.3-9.9.5-13,.3-5.3.3-5.3.4-6.8-2.2,7.8-3.2,11.4-4.5,15l-9.7,27.4c-2.5,7.1-3.8,11.5-4.3,14.7Z" transform="translate(-0.7 -6.1)"/><path class="cls-1" d="M625.9,99.7a128.45,128.45,0,0,0-16.5-.7H577.9c-7.6,0-10.4.1-14.7.3a92.17,92.17,0,0,0,.8-14.6V30.1a106.26,106.26,0,0,0-.8-14.61c4.1.2,6.9.3,14.7.3h31.9a122.79,122.79,0,0,0,14.9-.7V33.8a122.79,122.79,0,0,0-14.9-.7h-26V47.8h21.6a119.84,119.84,0,0,0,15-.7V65.6a123.5,123.5,0,0,0-15-.7H583.8V81.7h25.8a135.38,135.38,0,0,0,16.3-.7Z" transform="translate(-0.7 -6.1)"/><path class="cls-1" d="M655.2,78.8V99H635V78.8Z" transform="translate(-0.7 -6.1)"/><path class="cls-2" d="M69.33,92.1a81.21,81.21,0,0,0-2.4-10.8l-2.7-8.5H35.72L33,81.3a57.63,57.63,0,0,0-2.5,10.8H7.12c1.5-3,2.4-5.4,4.8-12.2l21.6-60.2a61,61,0,0,0,3.2-10.8H62.83a79.8,79.8,0,0,0,3.4,10.8l21.7,60.2c1.9,5.3,3.5,9.4,4.8,12.2ZM49.82,26l-9.3,30H59.33Z" transform="translate(-0.7 -6.1)"/><path class="cls-2" d="M114.42,92.1c-7.6,0-10.5.1-14.8.3a95.22,95.22,0,0,0,.8-14.7V23a110.67,110.67,0,0,0-.8-14.4c5.1.3,6.5.3,14.7.3h26.2c16.21,0,25.71,7.8,25.71,21,0,6.1-2,10.9-5.8,14.3-2.2,1.9-4,2.9-8.1,4.4,4.9,1.1,7.5,2.3,10.4,4.8,4.3,3.8,6.5,9.2,6.5,15.8,0,14.4-10.2,22.9-27.61,22.9ZM137.62,41c5.3,0,8.6-3.1,8.6-8s-3.1-7.7-8.8-7.7H120V41ZM120,75.6h18.4c6.3,0,10.1-3.5,10.1-9.4s-3.8-9.2-10.2-9.2H120Z" transform="translate(-0.7 -6.1)"/><path class="cls-2" d="M257.53,50.1c0,26.4-16.1,43.9-40.41,43.9-24.5,0-40.3-17.1-40.3-43.6s15.8-43.3,40.4-43.3S257.53,23.9,257.53,50.1Zm-20.8.2c0-16.2-7.41-26-19.51-26s-19.7,9.9-19.7,26c0,16.3,7.5,26.4,19.7,26.4S236.73,66.7,236.73,50.3Z" transform="translate(-0.7 -6.1)"/><path class="cls-2" d="M344,8.9a99.38,99.38,0,0,0-.8,15.1V58.4c0,22.8-13.7,35.7-37.8,35.7-12.4,0-22.5-3.5-28.5-9.8-5.8-6.2-8.8-14.9-8.8-26.1V24a97.71,97.71,0,0,0-.8-15.1h21.6c-.6,3.7-.8,7.7-.8,15.1V58.4c0,12.6,5.7,18.6,17.4,18.6,12,0,17.7-6,17.7-18.6V24a98.54,98.54,0,0,0-.8-15.1Z" transform="translate(-0.7 -6.1)"/><path class="cls-2" d="M398.92,77a113.78,113.78,0,0,0,.8,15.1h-22.1a110.92,110.92,0,0,0,.8-15.1V26.6h-11.8a135.33,135.33,0,0,0-15.1.7V8.2a137.06,137.06,0,0,0,14.9.7h43.8a132.27,132.27,0,0,0,15.6-.7V27.3a129,129,0,0,0-15.6-.7h-11.3Z" transform="translate(-0.7 -6.1)"/><path class="cls-2" d="M503.22,92.1c-.5-3.5-1.6-7.2-4.3-14.8l-9.2-26.6c-.1-.5-3.1-9.8-3.4-10.6-1.1-3.6-1.1-3.6-1.6-5,.6,6.3,1,14.5,1,19.8V76.6a107.09,107.09,0,0,0,.8,15.5h-19.7a110.67,110.67,0,0,0,.8-15.5V24.5a137.91,137.91,0,0,0-.8-15.6h26.4A73.92,73.92,0,0,0,497,23l15,43.1L526.92,23c2.3-6.7,3.1-9.9,3.7-14.1h26.5a116,116,0,0,0-.8,15.6V76.6a99.44,99.44,0,0,0,.8,15.5h-19.7a108.86,108.86,0,0,0,.8-15.5V54.8c0-2.4.3-9.9.5-13,.3-5.3.3-5.3.4-6.8-2.2,7.8-3.2,11.4-4.5,15l-9.7,27.4c-2.5,7.1-3.8,11.5-4.3,14.7Z" transform="translate(-0.7 -6.1)"/><path class="cls-2" d="M632.32,92.8a128.45,128.45,0,0,0-16.5-.7h-31.5c-7.6,0-10.4.1-14.7.3a92.17,92.17,0,0,0,.8-14.6V23.2a106,106,0,0,0-.8-14.6c4.1.19,6.9.3,14.7.3h31.9a122.79,122.79,0,0,0,14.9-.7V26.9a122.79,122.79,0,0,0-14.9-.7h-26V40.9h21.6a119.84,119.84,0,0,0,15-.7V58.7a123.5,123.5,0,0,0-15-.7h-21.6V74.8H616a135.38,135.38,0,0,0,16.3-.7Z" transform="translate(-0.7 -6.1)"/><path class="cls-2" d="M661.62,71.9V92.1h-20.2V71.9Z" transform="translate(-0.7 -6.1)"/></g></g></svg>