<?xml version="1.0" encoding="utf-8"?>
<!-- Generator: Adobe Illustrator 19.0.0, SVG Export Plug-In . SVG Version: 6.00 Build 0)  -->
<svg version="1.1" id="Layer_1" xmlns="http://www.w3.org/2000/svg" xmlns:xlink="http://www.w3.org/1999/xlink" x="0px" y="0px"
	 viewBox="0 0 836.2 749.2" style="enable-background:new 0 0 836.2 749.2;" xml:space="preserve">
<style type="text/css">
	.st0{clip-path:url(#SVGID_2_);}
	.st1{clip-path:url(#SVGID_4_);}
	.st2{clip-path:url(#SVGID_6_);fill:#FFFFFF;}
	.st3{clip-path:url(#SVGID_6_);fill:#ACACAC;}
</style>
<g>
	<defs>
		<rect id="SVGID_1_" x="-481.5" y="-77.1" width="1920" height="1080"/>
	</defs>
	<clipPath id="SVGID_2_">
		<use xlink:href="#SVGID_1_"  style="overflow:visible;"/>
	</clipPath>
	<g class="st0">
		<defs>
			<rect id="SVGID_3_" x="4.1" y="7.1" width="828.4" height="739.5"/>
		</defs>
		<clipPath id="SVGID_4_">
			<use xlink:href="#SVGID_3_"  style="overflow:visible;"/>
		</clipPath>
		<g class="st1">
			<defs>
				<rect id="SVGID_5_" x="4.1" y="7.1" width="828.4" height="739.5"/>
			</defs>
			<use xlink:href="#SVGID_5_"  style="display:none;overflow:visible;fill:#E80000;"/>
			<clipPath id="SVGID_6_">
				<use xlink:href="#SVGID_5_"  style="display:none;overflow:visible;"/>
			</clipPath>
			<path class="st2" d="M313.7,565.7c-12.1-46-24.3-92-36.4-138.1c-1.4-5.1-2.7-10.3-3.8-15.5c-0.7-3.3-2.2-3.7-5.2-3.1
				c-42.4,8.8-84.9,17.6-127.3,26.4c-33.9,7-67.9,14.1-101.8,21c-17.4,3.5-22.9,0.4-29.9-16.2c-4-9.5-5.7-19.4-4.9-29.7
				c1-12,6.1-16.9,17.9-17.6c56.9-3.1,113.6-7.7,170.4-11.9c23.5-1.7,46.8-4.6,70.8-5.1c-5.2-19.9-10.3-39.2-15.4-58.6
				c-7-26.8-14.1-53.6-20.9-80.5c-1.9-7.6-3.3-15.3-3.7-23.1c-0.6-13.2,9.5-23.7,22.6-23.7c20.4,0,31.2,10,33.4,31.2
				c4.7,45,9.4,90,14.1,135c0.5,4.8,1.3,9.6,1.7,14.4c0.2,2.2,0.9,2.7,3.1,2.5c12.7-1.1,25.5-1.4,38.1-3.4c5-0.8,11.2-2.8,13.9-8.7
				c0.4-0.8,1.5-1.3,2.2-1.9c3.5-0.6,3.1-3.7,3.9-6c1.3-1.7,2.6-3.4,3.9-5.2c2.4,0.3,5.1,2.7,7.1-0.9c0.7-3.7,2.4-7.1-2.8-9.9
				c-3.1-1.7-1.9-6.8-1.1-10.3c0.6-3,0.9-5.9,0.4-8.9c-1.1-6.5,0.3-13,0.4-19.4c0.3-12.5-1.7-24.9-2-37.4
				c-0.1-5.9,2.9-10.2,4.6-14.9c1.9-5.4,4.2-10.9,6.2-16.3c3.6-10.2,8.7-19.4,14.9-28.1c6.6-9.3,11.5-19.4,15.8-30.1
				c5.3-13.1,6.9-26.9,10.9-40.1c3-9.9,3.3-20.7,8.9-29.9c0.9-1.5,1-3.8-0.9-4.9c-1.8-1-3.2,0.6-4.3,1.7c-15,15-24.8,33.5-35.7,51.4
				c-1.5,2.4,0.5,5-1.2,7.2c-2.5,5.4-0.1,11.4-2.1,16.8c-3.4,0.9-2.1-1.3-2-2.9c1.9-2.3,1.8-4.8-0.5-6.4c-1.4-1-3.9-1.7-4.4,1.5
				l0.1,0c-2.6,2.4-2.2,5.5-2,8.6c0.1,1.5,1.6,3.1-0.2,4.5l0,0c0-1-0.6-1.8-1.5-1.5c-1.5,0.5-1.6,1.9-1.5,3.3
				c-0.8,1.1-0.3,2.9-2,3.8c-3.8-4.2-1.3-9.2-1.9-13.7c4.3-8.6,8-17.6,13.1-25.7c6.5-10.2,10.3-21.4,14.5-32.5
				c1.5-3.9,4.2-6.9,7.2-10c4.5-4.6,7.9-10.2,11.8-15.4c0.4-0.5,0.9-1.4,0.7-1.8c-2.7-4.5,1.1-6.7,3.3-9.3
				c7.5-8.7,16.7-15.5,25.6-22.7c2.2-1.8,5.2-1.9,8.2-1.6c7.6,0.7,14,4.2,20.2,8.2c2.3,1.5,4.6,2.7,7.4,2.4c3.5-0.3,3.9-1.9,2.9-5.2
				c-1.4-4.6-4.5-5-8.4-5.6c-8.9-1.3-18.5-12.6-18.8-21.4c-0.3-9.8,7.5-19.7,17.4-22.5c8.1-2.2,15.6-0.8,21.1,5.3
				c5.5,6.1,8.7,13.5,4.5,22c-0.2,0.4-0.4,1-0.4,1.4c0.1,1.8-2.4,3.6-0.6,5c1.7,1.4,3.6-0.6,5.4-0.9c5.6-1.1,10.7-4,16.5-4.3
				c4-0.2,9.3,3.6,9.9,8.7c0.5,4.4,2.7,8.4,2.5,13.1c-0.1,2.8-0.7,4.4-2.5,6.5c-5.8,6.6-12.9,10.1-21.6,10.2c-1,0-2.2,0.2-2.9-0.3
				c-3.1-1.9-6-1-7.3,1.6c-1.4,2.7-1.1,6.2,1.4,8.8c5.1,5.3,9,11.5,12.6,17.9c1.6,2.8,2.1,5.4,1.2,8.6c-2.4,8.6-0.4,17.2,1.1,25.7
				c0.9,5.5,10.3,10.1,15.8,8.9c3.6-0.8,7.2-1.3,10.8-1.7c3.1-0.3,6.2,0,7.1,3.7c0.8,3.1,1.9,6.1-1.7,8.8c-1.8,1.3-2.5,4.2-4.3,6
				c-3.1,3.1-6.7,4.2-9.8,1.3c-4.5-4.3-9.8-6.2-15.7-6.1c-7,0.1-11.6-4.4-16.9-7.8c-0.5-0.3-1.1-1-1.2-1.5c-0.9-5.6-3.8-4.3-7.1-2.2
				c-1,0.6-1.9,1.3-3.2,2.1c-0.3-3.4,0.1-6.3,2-8.7c2.4-3,1.2-5.9-0.7-8.2c-2.4-2.7-4.6,0.1-6.5,1.2c-4.2,2.4-6.9,6-7.4,11.1
				c-0.4,4.1-1.1,8.3-2.2,12.3c-2.1,7.5-0.3,15.1,2.2,21.4c2.2,5.6,4.4,11.7,8.2,17c4.9,6.8,6.6,15.2,7.1,23.5
				c0.4,7.7,1.4,15.2,3.9,22.5c2.4,6.6,2.2,13.7,2.7,20.4c0.6,8.9,2.3,17.8,2.5,26.6c0.4,20.5,2,40.9,2,61.3c0,8.3,0.3,8.3,8.3,8.5
				c0.8,0.4,1.5,0.7,2.3,1.1c-3.3,0.9-8.2,0.8-9.4,2.9c-1.7,2.9-0.6,7.4-0.6,11.2c0,9.8,0,19.5,0.7,29.4c4.1-2.6,7.1-5.5,9.6-9.1
				c23.8-34.2,47.8-68.4,71.5-102.8c2.5-3.5,5.1-4.2,8.8-3.4c12,2.7,18,10.6,19.5,24.4c2.8,26.4,2.9,52.9,2.8,79.4c0,1.8,0,3.6,0,6
				c2.7-1.6,3.3-4.1,4.3-6.2c16.1-32.6,30.4-66,45.8-99c5.8-12.3,11.3-24.8,17.8-36.7c1.3-2.4,2.9-4.3,5.6-5.3
				c15.2-5.6,30.8-9.5,47.1-10.3c0.8,0,1.7,0,2.5,0c10.3,0.3,11.1,1.7,6.9,10.8c-16.4,35.3-28.4,72.2-39.8,109.4
				c-7.2,23.3-13.9,46.8-18.6,70.7c-5.1,26.3-9.5,52.7-14.4,79c-4.7,25-9.8,49.8-14.4,74.8c-7.3,38.9-13.9,77.9-19.7,117
				c-1.3,8.9-2.7,17.7-4.1,26.6c-0.3-1.1-0.7-2.1-1-3.2c1.5-20.2,3-40.5,4.6-60.7c2.1-25.9,4.4-51.7,6.5-77.6
				c2.1-24.9,5.3-49.6,8.5-74.4c4.2-32.2,8.3-64.4,12.5-96.5c2.7-21.1,5.5-42.2,8.2-63.3c0,0,0,0,0-0.1c1.3-1.6,1.1-3.4,0.6-5.4
				c-1.2,0.9-1.8,1.9-1.7,3.3c-9.1,21.7-18.2,43.5-30.1,63.9c-4.1,7.1-8.5,13.9-14,20c-1.9,2.1-4,4.1-6.2,5.8
				c-6.9,5.1-13,4.2-18.3-2.4c-4.3-5.4-6.5-11.9-8.5-18.4c-5.1-16.9-5.9-34.4-6.9-51.8c-1-16.6-2.7-33.2-1.9-51.2
				c-4.6,6.3-7.8,11.9-10.3,17.9c-13.6,32.7-28.4,64.7-46,95.4c-4.8,8.4-10.2,16.4-17.2,23.2c-10.6,10.3-20.8,4.7-25.3-5.1
				c-5.3-11.6-7.2-24.1-8.4-36.7c-1.2-13.3-2.5-26.5-3.5-39.8c-0.2-3.1-1-3.8-4.2-3c-10.3,2.5-20.7,4.6-31.1,6.6
				c-3.1,0.6-3.9,2.6-4.9,4.9c-10.7,24.3-21.5,48.6-34.9,71.6c-3.7,6.3-7.4,12.7-12.5,18c-6,6.2-10.9,5.2-14.5-2.7
				c-2.4-5.3-2.9-10.9-3-16.6c-0.3-18.3-2.5-36.6-2.3-54.9c0-3.8-0.8-5.1-5.1-4.2c-18.5,4.1-37.1,7.9-55.7,11.6
				c-3.4,0.7-4.3,1.8-3.9,5.5c3.1,28.6,5.8,57.3,8.7,85.9c2.2,21.7,4.4,43.4,6.6,65.1c0.2,2.5,0.2,5,0.3,7.5
				C314.2,565.6,313.9,565.6,313.7,565.7 M391.2,365.9c7.9-0.6,14.7-1,21.5-1.5c2-0.1,3.6-0.5,4.8-2.7c9.8-20,19.6-39.9,26.9-61
				c6-17.6,10-35.8,17.8-52.8c1.4-3.1-0.5-4.8-2.6-6.2c-5.3-3.5-9.6-8.2-13.8-12.9c-3.3-3.7-6.6-7.4-10.9-10.2c-3.2-2-6-1.9-8.8,0.1
				c-9.5,7-18.5,14.4-24.7,24.9c-3.8,6.4-7.9,12.6-11.7,19.1c-3.8,6.4-7.1,12.7-6,20.2c1.5,9.9-2.3,19.2-2.6,29
				c-0.4,11.2-1.5,22.4,0.3,33.6c0.7,4.3,1.8,8.4,2.5,12.7C385.1,365.7,386,366.2,391.2,365.9 M437.9,362.4c8-0.6,15.3-1.1,22.6-1.6
				c9.6-0.6,9.6-0.6,9.2-10c-1-22.5,1.5-44.9,2.2-67.3c0-1.2,0.9-2.6-0.9-3.7C460.5,307.3,449.6,334.5,437.9,362.4 M407.7,380.3
				c-4.3,0.9-8,1.6-11.6,2.4c-10.6,2.2-10.7,2.2-11,13c-0.3,7.1-0.9,14.3-0.1,21.4c0.1,1,0,2.5,1.5,2.8c1.2,0.2,1.6-1,2.1-1.8
				C394.7,405.7,401,393.3,407.7,380.3 M369.5,171.3c-0.4-0.3-0.7-0.8-1-0.8c-0.3,0-0.8,0.5-0.8,0.8c-0.1,0.6,0.2,1.3,1,1.1
				C369,172.3,369.2,171.7,369.5,171.3"/>
			<path class="st2" d="M832.5,396.3c0.3,49.6-5.1,98.6-15,147.2c-4.6,22.8-10.5,45.4-17.7,67.5c-12.3,37.4-28.1,73.2-52.1,104.8
				c-7,9.2-14.5,17.8-23.9,24.6c-14.3,10.4-27.2,7.5-35.8-7.8c-2.2-3.9-3.9-8.1-5.4-12.3c-6.4-18.7-9.2-38.1-11-57.7
				c-6-67,0.5-133.3,13.4-199.1c7.5-38.3,17.8-75.8,33.3-111.6c12.8-29.7,27.8-58.2,51.6-81c4-3.8,8.2-7.3,13.2-9.8
				c10.7-5.3,20.6-3.1,27.9,6.4c7.4,9.6,10.9,20.9,13.5,32.5c5.5,24.1,7.3,48.6,8,73.3C832.6,381,832.5,388.7,832.5,396.3
				 M687.4,613.9c0,4.8-0.1,9.7,0,14.5c0.3,11.7,1.7,23.2,4,34.6c1.6,7.9,5.7,9.7,13.2,6.4c5.1-2.2,9.6-5.4,13.8-8.9
				c16.9-14.3,28.1-32.8,37.8-52.2c16-31.8,27.5-65.3,35.1-100c6.1-27.9,10.3-56,9.1-84.7c-0.1-3.6-0.7-7.3-1-10.9
				c-1.1-12.9-4.1-25.3-8.8-37.3c-3.4-8.7-10.9-10.6-19.3-4.9c-4.7,3.3-8.3,7.7-11.7,12.2c-23.2,30.8-37.6,65.9-49.2,102.4
				c-8.2,26-15.1,52.3-19.4,79.3C688.6,580.8,687.2,597.3,687.4,613.9"/>
			<path class="st2" d="M370.4,179c1.8-1.4,0.3-3,0.2-4.5c-0.1-3-0.6-6.2,2-8.6c-0.5,4.1-1.8,8.1,0.6,12.1c0.7,1.2,2,3,0.1,3.8
				C371.4,182.7,370.8,180.7,370.4,179"/>
			<path class="st2" d="M363.5,170.9c0.6,4.5-1.9,9.5,1.9,13.7c1.7-0.9,1.3-2.6,2-3.8c0.3,0,0.7,0,1,0c-0.7,2,0.1,5.5-2.9,5.2
				c-2.4-0.3-3.5-3.3-3.2-6C362.8,176.9,361.2,173.7,363.5,170.9"/>
			<path class="st2" d="M379.4,173.8c2-5.5-0.4-11.5,2.1-16.8c0,4.1,0.1,8.2,0,12.3C381.5,170.9,381.3,172.8,379.4,173.8"/>
			<path class="st2" d="M628.3,724.6c0.3,1.1,0.7,2.1,1,3.2c-0.3,2.4-0.6,4.8-0.9,7.2c0,0.2-0.5,0.4-0.9,0.7
				C627.4,732,627,728.2,628.3,724.6"/>
			<path class="st2" d="M372.6,166c0.5-3.3,3-2.6,4.4-1.5c2.3,1.7,2.4,4.1,0.5,6.4C377.6,165,377.2,164.6,372.6,166"/>
			<path class="st2" d="M367.4,346.9c-1.9,3.6-4.6,1.2-7.1,0.9C362.6,346.2,365.2,347.8,367.4,346.9"/>
			<path class="st2" d="M507.5,358.9c-0.8-0.4-1.5-0.7-2.3-1.1c2.3-0.9,4.6-0.8,7.4-0.8C511.1,359.1,509.3,358.9,507.5,358.9"/>
			<path class="st2" d="M356.5,352.9c-0.8,2.3-0.4,5.5-3.9,6C354.3,357.3,354.1,354.2,356.5,352.9"/>
			<path class="st2" d="M667.6,350c-0.1-1.4,0.4-2.4,1.7-3.3c0.5,2,0.7,3.8-0.6,5.4C668.3,351.4,668.7,350.3,667.6,350"/>
			<path class="st2" d="M368.4,180.8c-0.3,0-0.7,0-1,0c-0.1-1.4-0.1-2.8,1.5-3.3c0.8-0.3,1.5,0.5,1.5,1.5
				C369.4,179.2,368.5,179.6,368.4,180.8"/>
			<path class="st3" d="M313.7,565.7c0.3-0.1,0.5,0,0.7,0.2c1.5,0.8,1.3,2,0.6,3.7C314.4,568,314,566.9,313.7,565.7"/>
			<path class="st2" d="M369.5,171.3c-0.3,0.5-0.5,1-0.8,1.1c-0.8,0.2-1.1-0.5-1-1.1c0-0.3,0.5-0.8,0.8-0.8
				C368.8,170.4,369.1,170.9,369.5,171.3"/>
		</g>
	</g>
</g>
</svg>
